Coordinates
version=1
nRows=22
nColumns=24
inDegrees=yes

Units are S.I. units (second, meters, Newtons, ...)
Angles are in degrees.

endheader
time	pelvis_tilt	pelvis_list	pelvis_rotation	pelvis_tx	pelvis_ty	pelvis_tz	hip_flexion_r	hip_adduction_r	hip_rotation_r	knee_angle_r	ankle_angle_r	subtalar_angle_r	mtp_angle_r	hip_flexion_l	hip_adduction_l	hip_rotation_l	knee_angle_l	ankle_angle_l	subtalar_angle_l	mtp_angle_l	lumbar_extension	lumbar_bending	lumbar_rotation
      0.44800000	     -4.02994736	      0.26809482	      5.89725801	     -0.75637801	      0.88787830	      0.29631943	     32.44260639	      0.65365911	     -8.92312639	    -20.20056762	      6.08709665	      3.08112858	      6.03924797	    -12.10687439	      2.36479360	      2.01578978	    -10.51568982	     18.04788121	      1.52410189	      4.99264464	     -6.88702730	     -2.18861841	     -8.26435056
      0.45216667	     -4.08093449	      0.24938016	      5.97256750	     -0.75030154	      0.88675317	      0.29636131	     32.36348804	      0.79429381	     -8.71409378	    -19.90442008	      5.97340671	      2.77903900	      6.00956212	    -12.03580386	      2.27386496	      1.99515022	    -11.43899136	     18.18582529	      1.75527528	      5.08847213	     -6.78078454	     -2.12668419	     -8.28025572
      0.45633333	     -4.12736685	      0.23105432	      6.04020545	     -0.74419888	      0.88566759	      0.29641116	     32.28937936	      0.93191066	     -8.50962774	    -19.73244586	      5.85373257	      2.45740326	      5.99127594	    -11.93145697	      2.17962881	      1.93102005	    -12.43493853	     18.30972538	      2.04162371	      5.23015866	     -6.67921779	     -2.06599881	     -8.25523199
      0.46050000	     -4.15770798	      0.20229524	      6.09139410	     -0.73806980	      0.88461877	      0.29649911	     32.22176857	      1.08502243	     -8.30402851	    -19.70820658	      5.71910569	      2.06271689	      5.98178947	    -11.80445689	      2.06653279	      1.80251449	    -13.51665837	     18.40445276	      2.40469165	      5.49151858	     -6.60978223	     -1.96443834	     -8.21314184
      0.46466667	     -4.22490642	      0.18720734	      6.14831790	     -0.73193088	      0.88358327	      0.29659336	     32.19223225	      1.21612730	     -8.08962755	    -19.77041621	      5.53840035	      1.65497293	      5.98343177	    -11.61573357	      1.97604146	      1.75991733	    -14.63988297	     18.42024054	      2.64390683	      5.72941198	     -6.46730251	     -1.92324507	     -8.15769696
      0.46883333	     -4.25440888	      0.14653671	      6.18684469	     -0.72576126	      0.88261075	      0.29671931	     32.15265039	      1.37794325	     -7.89512118	    -19.98009404	      5.35302655	      1.16543073	      6.00321262	    -11.41834289	      1.84099070	      1.59205977	    -15.85960056	     18.41915718	      3.04880644	      6.15035406	     -6.38942029	     -1.79929996	     -8.07832517
      0.47300000	     -4.33598745	      0.13495843	      6.22982085	     -0.71961284	      0.88163433	      0.29684977	     32.16832405	      1.50107933	     -7.67287834	    -20.26328556	      5.14963515	      0.71764050	      6.02316457	    -11.13122902	      1.75368409	      1.53297371	    -17.14172585	     18.32944651	      3.25844134	      6.48224573	     -6.23261080	     -1.76988465	     -7.98740326
      0.47716667	     -4.36071574	      0.08618898	      6.24490950	     -0.71339927	      0.88074748	      0.29703210	     32.15570833	      1.67428238	     -7.47651261	    -20.68575946	      4.94731243	      0.16209702	      6.07101253	    -10.86585805	      1.60163054	      1.32350306	    -18.49641636	     18.19646589	      3.69711422	      7.12713455	     -6.14988856	     -1.62614610	     -7.86403019
      0.48133333	     -4.41806597	      0.06023420	      6.29265665	     -0.70722886	      0.87989323	      0.29717612	     32.17639430	      1.79688720	     -7.30244071	    -21.16836765	      4.78061104	     -0.29785195	      6.49238454	    -10.51872822	      1.48367502	      1.25419351	    -19.92083094	     17.91103775	      3.84048057	     12.41822008	     -6.02664061	     -1.55658529	     -7.76050672
      0.48550000	     -4.50240200	      0.05652921	      6.31151783	     -0.70105822	      0.87902387	      0.29733884	     32.27059357	      1.89789377	     -7.11239144	    -21.80414213	      4.68760405	     -0.74867740	      6.48968459	    -10.12512181	      1.40872866	      1.21861135	    -21.38044200	     17.58806429	      3.98544430	     12.46680807	     -5.87235860	     -1.49275459	     -7.61240825
      0.48966667	     -4.57591517	      0.03648129	      6.31471385	     -0.69488721	      0.87820791	      0.29756778	     32.36012653	      2.02570557	     -6.90558683	    -22.49171491	      4.59300034	     -1.22451545	      6.48875046	     -9.67773227	      1.29765385	      1.08180178	    -22.95720516	     17.22531092	      4.24861700	     12.57189498	     -5.72546369	     -1.42175089	     -7.44960562
      0.49383333	     -4.61861948	      0.00269023	      6.29801777	     -0.68872107	      0.87747655	      0.29786766	     32.41907368	      2.18057499	     -6.68658103	    -23.21139250	      4.48741358	     -1.68701890	      6.48727354	     -9.20030964	      1.14976566	      0.84795555	    -24.64167495	     16.84839104	      4.58919983	     12.80599500	     -5.61957872	     -1.35783103	     -7.25881157
      0.49800000	     -4.66464249	     -0.03389812	      6.29327934	     -0.68252750	      0.87680410	      0.29810924	     32.49774464	      2.31915904	     -6.50365626	    -24.01960139	      4.56469889	     -2.09233082	      6.48820181	     -8.71196432	      1.01590775	      0.74059952	    -26.31596224	     16.26274855	      4.79533088	     12.98929265	     -5.50212504	     -1.22415130	     -7.08842508
      0.50216667	     -4.67866253	     -0.11310076	      6.26327856	     -0.67635281	      0.87620337	      0.29848154	     32.52955988	      2.53053533	     -6.27974818	    -24.80150907	      4.55001826	     -2.59543635	      6.34145747	     -8.17270693	      0.79117304	      0.44981539	    -28.13125615	     15.67449231	      5.05713242	     18.09617850	     -5.42446863	     -1.09491538	     -6.90050389
      0.50633333	     -4.71718733	     -0.13193074	      6.23505904	     -0.67022566	      0.87561257	      0.29878010	     32.63111754	      2.64736757	     -6.11794009	    -25.71891082	      4.72420877	     -2.85111021	      6.34156762	     -7.58459079	      0.66028246	      0.28098954	    -29.96725637	     14.97353281	      5.27028979	     18.16475507	     -5.32984663	     -1.02059412	     -6.66966263
      0.51050000	     -4.74417838	     -0.18232784	      6.19931591	     -0.66409733	      0.87509527	      0.29912758	     32.69812691	      2.80938640	     -5.93123707	    -26.60126670	      4.93379114	     -3.13646940	      6.33354910	     -6.95961296	      0.48112742	      0.08340800	    -31.87122225	     14.18644616	      5.45719854	     18.28047923	     -5.24046434	     -0.91916996	     -6.45313582
      0.51466667	     -4.75222467	     -0.25329739	      6.15533589	     -0.65798087	      0.87464585	      0.29950167	     32.73786438	      2.99610672	     -5.75524260	    -27.47994061	      5.19656732	     -3.39469652	      6.31745234	     -6.31264983	      0.26550103	     -0.14169464	    -33.82738266	     13.33424728	      5.64476224	     18.43813420	     -5.17537184	     -0.78309416	     -6.22789953
      0.51883333	     -4.74488499	     -0.33967892	      6.10742072	     -0.65187495	      0.87426986	      0.29988546	     32.74874418	      3.19926479	     -5.59171065	    -28.34515859	      5.51237635	     -3.62356226	      6.28899892	     -5.63965444	      0.02271208	     -0.37384919	    -35.82711655	     12.42931276	      5.82358158	     18.64548112	     -5.12733506	     -0.62404000	     -5.99233190
      0.52300000	     -4.68565564	     -0.44691941	      6.05987835	     -0.64575610	      0.87406553	      0.30025374	     32.66439418	      3.42908055	     -5.43009057	    -29.14309273	      5.92205549	     -3.79617064	      6.27356735	     -5.00466524	     -0.24410684	     -0.56584749	    -37.81483567	     11.33713023	      5.88646444	     18.77106367	     -5.14982524	     -0.40366869	     -5.81441632
      0.52716667	     -4.67798500	     -0.56237054	      5.99575042	     -0.63972280	      0.87375585	      0.30068480	     32.64770962	      3.66223663	     -5.30121814	    -29.95159079	      6.27691285	     -3.95970030	      6.22137767	     -4.23889603	     -0.55412754	     -0.87678378	    -39.92142006	     10.32846625	      6.07243048	     19.02771098	     -5.09526044	     -0.24271373	     -5.52767090
      0.53133333	     -4.62055745	     -0.70738736	      5.93215464	     -0.63366392	      0.87362271	      0.30111299	     32.52520968	      3.93493742	     -5.17116908	    -30.66260845	      6.70161750	     -4.07829385	      6.15873478	     -3.51226229	     -0.90315310	     -1.15653470	    -41.99808415	      9.17106373	      6.15428517	     19.28645392	     -5.10966112	     -0.01619503	     -5.28123833
      0.53550000	     -4.51708458	     -0.88305044	      5.86615094	     -0.62761995	      0.87361938	      0.30155115	     32.31410140	      4.24988719	     -5.04141104	    -31.29769061	      7.21438438	     -4.20814619	      4.72691477	     -2.81094366	     -1.30542212	     -1.44758517	    -44.06375744	      7.94762230	      6.12686303	     23.62485697	     -5.18659606	      0.27530655	     -5.02341268
